<mxfile host="app.diagrams.net" modified="2024-07-22T08:46:15.150Z" agent="Mozilla/5.0 (Macintosh; Intel Mac OS X 10_15_7) AppleWebKit/537.36 (KHTML, like Gecko) Chrome/126.0.0.0 Safari/537.36" etag="SKJj8wG-D-jo2fteeOSw" version="24.7.1" type="github">
  <diagram name="Page-1" id="MQRBOVEajW-OVPwXuCdg">
    <mxGraphModel dx="1943" dy="1064" grid="1" gridSize="10" guides="1" tooltips="1" connect="1" arrows="1" fold="1" page="1" pageScale="1" pageWidth="850" pageHeight="1100" math="0" shadow="0">
      <root>
        <mxCell id="0" />
        <mxCell id="1" parent="0" />
        <mxCell id="qzZSpOBnMn2lOiOHm9Dc-1" value="rust" style="rounded=1;whiteSpace=wrap;html=1;" parent="1" vertex="1">
          <mxGeometry x="320" y="140" width="120" height="60" as="geometry" />
        </mxCell>
        <mxCell id="qzZSpOBnMn2lOiOHm9Dc-2" value="flutter" style="rounded=1;whiteSpace=wrap;html=1;" parent="1" vertex="1">
          <mxGeometry x="320" y="370" width="120" height="60" as="geometry" />
        </mxCell>
        <mxCell id="qzZSpOBnMn2lOiOHm9Dc-3" value="service" style="text;html=1;align=center;verticalAlign=middle;whiteSpace=wrap;rounded=0;" parent="1" vertex="1">
          <mxGeometry x="140" y="155" width="60" height="30" as="geometry" />
        </mxCell>
        <mxCell id="qzZSpOBnMn2lOiOHm9Dc-4" value="web" style="text;html=1;align=center;verticalAlign=middle;whiteSpace=wrap;rounded=0;" parent="1" vertex="1">
          <mxGeometry x="140" y="385" width="60" height="30" as="geometry" />
        </mxCell>
        <mxCell id="qzZSpOBnMn2lOiOHm9Dc-5" value="android flutter" style="rounded=1;whiteSpace=wrap;html=1;" parent="1" vertex="1">
          <mxGeometry x="320" y="580" width="120" height="60" as="geometry" />
        </mxCell>
        <mxCell id="qzZSpOBnMn2lOiOHm9Dc-13" value="" style="edgeStyle=orthogonalEdgeStyle;rounded=0;orthogonalLoop=1;jettySize=auto;html=1;" parent="1" source="qzZSpOBnMn2lOiOHm9Dc-6" target="qzZSpOBnMn2lOiOHm9Dc-8" edge="1">
          <mxGeometry relative="1" as="geometry" />
        </mxCell>
        <mxCell id="qzZSpOBnMn2lOiOHm9Dc-6" value="ios swift ui" style="rounded=1;whiteSpace=wrap;html=1;" parent="1" vertex="1">
          <mxGeometry x="320" y="740" width="120" height="60" as="geometry" />
        </mxCell>
        <mxCell id="qzZSpOBnMn2lOiOHm9Dc-7" value="android" style="text;html=1;align=center;verticalAlign=middle;whiteSpace=wrap;rounded=0;" parent="1" vertex="1">
          <mxGeometry x="150" y="595" width="60" height="30" as="geometry" />
        </mxCell>
        <mxCell id="qzZSpOBnMn2lOiOHm9Dc-8" value="ios" style="text;html=1;align=center;verticalAlign=middle;whiteSpace=wrap;rounded=0;" parent="1" vertex="1">
          <mxGeometry x="150" y="755" width="60" height="30" as="geometry" />
        </mxCell>
        <mxCell id="qzZSpOBnMn2lOiOHm9Dc-9" value="" style="endArrow=classic;html=1;rounded=0;" parent="1" target="qzZSpOBnMn2lOiOHm9Dc-1" edge="1">
          <mxGeometry width="50" height="50" relative="1" as="geometry">
            <mxPoint x="210" y="170" as="sourcePoint" />
            <mxPoint x="260" y="120" as="targetPoint" />
          </mxGeometry>
        </mxCell>
        <mxCell id="qzZSpOBnMn2lOiOHm9Dc-10" value="" style="endArrow=classic;html=1;rounded=0;" parent="1" edge="1">
          <mxGeometry width="50" height="50" relative="1" as="geometry">
            <mxPoint x="210" y="399.5" as="sourcePoint" />
            <mxPoint x="320" y="399.5" as="targetPoint" />
          </mxGeometry>
        </mxCell>
        <mxCell id="qzZSpOBnMn2lOiOHm9Dc-11" value="" style="endArrow=classic;html=1;rounded=0;" parent="1" target="qzZSpOBnMn2lOiOHm9Dc-5" edge="1">
          <mxGeometry width="50" height="50" relative="1" as="geometry">
            <mxPoint x="200" y="609.5" as="sourcePoint" />
            <mxPoint x="310" y="609.5" as="targetPoint" />
          </mxGeometry>
        </mxCell>
        <mxCell id="qzZSpOBnMn2lOiOHm9Dc-12" value="" style="endArrow=classic;html=1;rounded=0;" parent="1" target="qzZSpOBnMn2lOiOHm9Dc-6" edge="1">
          <mxGeometry width="50" height="50" relative="1" as="geometry">
            <mxPoint x="200" y="769.5" as="sourcePoint" />
            <mxPoint x="320" y="770" as="targetPoint" />
          </mxGeometry>
        </mxCell>
        <mxCell id="qRhY5KWDLu5tCOjcRByq-2" value="dockor" style="rounded=1;whiteSpace=wrap;html=1;" vertex="1" parent="1">
          <mxGeometry x="580" y="140" width="120" height="60" as="geometry" />
        </mxCell>
        <mxCell id="qRhY5KWDLu5tCOjcRByq-3" value="jenkens" style="rounded=1;whiteSpace=wrap;html=1;" vertex="1" parent="1">
          <mxGeometry x="580" y="370" width="120" height="60" as="geometry" />
        </mxCell>
        <mxCell id="qRhY5KWDLu5tCOjcRByq-5" value="jenkens" style="rounded=1;whiteSpace=wrap;html=1;" vertex="1" parent="1">
          <mxGeometry x="580" y="650" width="120" height="60" as="geometry" />
        </mxCell>
      </root>
    </mxGraphModel>
  </diagram>
</mxfile>
